<svg width="347" height="325" viewBox="0 0 347 325" fill="none" xmlns="http://www.w3.org/2000/svg">
<path d="M3.74566 302.63V322.591H8.35019C8.10875 320.49 8.10875 318.369 8.35019 316.269C8.78759 313.923 13.7897 307.863 13.6386 302.662L3.74566 302.63Z" fill="#EBEBEB"/>
<path d="M40.5819 302.63V322.591H45.1865C44.945 320.49 44.945 318.369 45.1865 316.269C45.6239 313.923 50.626 307.863 50.4749 302.662L40.5819 302.63Z" fill="#E0E0E0"/>
<path d="M76.6389 302.63V322.591H72.0264C72.2635 320.49 72.2635 318.369 72.0264 316.269C71.581 313.923 66.5868 307.863 66.73 302.662L76.6389 302.63Z" fill="#EBEBEB"/>
<path d="M108.513 302.63V322.591H103.908C104.145 320.49 104.145 318.369 103.908 316.269C103.471 313.923 98.4686 307.863 98.6197 302.662L108.513 302.63Z" fill="#E0E0E0"/>
<path d="M110.93 204.201H0.61235V303.266H110.93V204.201Z" fill="#F5F5F5"/>
<path d="M81.2116 204.201L82.0307 303.266H110.93V204.201H81.2116Z" fill="#E0E0E0"/>
<path d="M76.4003 211.493H5.57475V236.703H76.4003V211.493Z" fill="#EBEBEB"/>
<path d="M76.4003 241.721H5.57475V266.931H76.4003V241.721Z" fill="#EBEBEB"/>
<path d="M76.4003 271.957H5.57475V297.167H76.4003V271.957Z" fill="#EBEBEB"/>
<path d="M32.7248 175.739L29.671 204.09H68.8135L72.0582 175.739H32.7248Z" fill="#E0E0E0"/>
<path d="M34.3392 177.775L31.3649 202.579H66.6902L69.5452 177.775H34.3392Z" fill="white"/>
<path d="M40.2797 181.95L38.4507 198.412H60.7417L61.8869 181.95H40.2797Z" fill="#EBEBEB"/>
<path d="M70.6585 187.946L78.7463 204.201L68.8135 204.089L70.6585 187.946Z" fill="#EBEBEB"/>
<path d="M43.5801 225.41C43.5816 225.923 43.4309 226.425 43.147 226.853C42.8631 227.28 42.4587 227.614 41.9852 227.811C41.5116 228.009 40.9901 228.061 40.4866 227.962C39.9832 227.863 39.5205 227.617 39.1572 227.254C38.7938 226.892 38.5461 226.43 38.4454 225.927C38.3447 225.424 38.3956 224.902 38.5916 224.428C38.7876 223.954 39.1198 223.548 39.5464 223.263C39.9729 222.978 40.4744 222.826 40.9875 222.826C41.6737 222.826 42.3319 223.098 42.8179 223.582C43.3039 224.067 43.5779 224.724 43.5801 225.41V225.41Z" fill="#E0E0E0"/>
<path d="M43.5801 255.949C43.5801 256.461 43.428 256.963 43.1431 257.389C42.8583 257.815 42.4534 258.147 41.9796 258.344C41.5059 258.54 40.9846 258.591 40.4817 258.491C39.9788 258.391 39.5169 258.144 39.1543 257.782C38.7917 257.419 38.5448 256.957 38.4448 256.454C38.3448 255.951 38.3961 255.43 38.5923 254.956C38.7885 254.483 39.1208 254.078 39.5472 253.793C39.9735 253.508 40.4748 253.356 40.9875 253.356C41.3283 253.355 41.6659 253.421 41.9809 253.551C42.2959 253.681 42.5821 253.872 42.8231 254.113C43.064 254.354 43.2549 254.64 43.3849 254.955C43.5148 255.27 43.5811 255.608 43.5801 255.949V255.949Z" fill="#E0E0E0"/>
<path d="M43.5801 286.478C43.5801 286.991 43.428 287.492 43.1431 287.919C42.8583 288.345 42.4534 288.677 41.9796 288.873C41.5059 289.07 40.9846 289.121 40.4817 289.021C39.9788 288.921 39.5169 288.674 39.1543 288.311C38.7917 287.949 38.5448 287.487 38.4448 286.984C38.3448 286.481 38.3961 285.96 38.5923 285.486C38.7885 285.012 39.1208 284.608 39.5472 284.323C39.9735 284.038 40.4748 283.886 40.9875 283.886C41.6751 283.886 42.3345 284.159 42.8207 284.645C43.3069 285.131 43.5801 285.791 43.5801 286.478Z" fill="#E0E0E0"/>
<path d="M76.2889 43.1615L13.742 42.5571L15.4836 124.071L78.0305 124.302L76.2889 43.1615Z" fill="#E0E0E0"/>
<path d="M72.257 46.7959L17.5036 45.3804L19.0862 119.307L73.8237 119.983L72.257 46.7959Z" fill="#FAFAFA"/>
<path d="M62.9127 57.8419L26.5775 57.2375L27.6908 108.913L63.9863 108.134L62.9127 57.8419Z" fill="#EBEBEB"/>
<path d="M27.6908 108.913L63.4217 81.5883L26.5775 57.2375L27.6908 108.913Z" fill="#F5F5F5"/>
<path d="M345.443 0.671007L290.563 0.138184L292.098 71.6556L346.962 71.8544L345.443 0.671007Z" fill="#E0E0E0"/>
<path d="M341.897 3.86794L293.863 2.61938L295.255 67.4725L343.272 68.061L341.897 3.86794Z" fill="#FAFAFA"/>
<path d="M333.698 13.5541L301.832 13.0212L302.802 58.3509L334.644 57.6749L333.698 13.5541Z" fill="#EBEBEB"/>
<path d="M302.802 58.3509L334.151 34.3818L301.832 13.0212L302.802 58.3509Z" fill="#F5F5F5"/>
<path d="M283.97 269.547C283.74 270.247 291.923 301.358 291.923 301.358L297.537 300.189L289.815 269.547H283.97Z" fill="#EBEBEB"/>
<path d="M327.479 265.102L316.25 301.357H322.803L333.562 267.678L327.479 265.102Z" fill="#F5F5F5"/>
<path d="M337.769 259.487L324.902 301.358H331.455L343.853 262.064L337.769 259.487Z" fill="#EBEBEB"/>
<path d="M287.946 298.789L294.499 321.477H327.479L333.562 298.789H287.946Z" fill="#E0E0E0"/>
<path d="M304.957 298.789C304.928 298.711 304.904 298.631 304.885 298.55L304.71 297.858C304.559 297.222 304.353 296.323 304.082 295.178L301.816 285.269L294.412 252.227L294.611 252.394H288.837L289.036 252.139C291.97 265.141 294.603 276.792 296.487 285.206C297.41 289.397 298.158 292.777 298.682 295.146C298.921 296.3 299.12 297.198 299.255 297.842C299.311 298.137 299.358 298.367 299.39 298.542C299.403 298.624 299.403 298.707 299.39 298.789C299.362 298.711 299.338 298.631 299.319 298.55C299.271 298.375 299.215 298.145 299.144 297.858C298.985 297.222 298.77 296.323 298.492 295.178C297.943 292.793 297.155 289.445 296.177 285.269C294.245 276.856 291.581 265.221 288.606 252.227L288.543 251.98H294.746L294.786 252.139C297.641 265.141 300.209 276.792 302.062 285.206C302.961 289.397 303.692 292.777 304.201 295.146C304.44 296.3 304.623 297.198 304.758 297.842L304.893 298.542C304.928 298.62 304.949 298.704 304.957 298.789V298.789Z" fill="#E0E0E0"/>
<path d="M337.189 322.424C337.189 322.535 261.687 322.631 168.594 322.631C75.5016 322.631 0 322.535 0 322.424C0 322.313 75.4857 322.217 168.634 322.217C261.782 322.217 337.189 322.313 337.189 322.424Z" fill="#5C5C5C"/>
<path d="M315.478 105.367C315.296 105.29 315.107 105.231 314.914 105.192C314.345 105.064 313.756 105.064 313.188 105.192C312.267 105.428 311.411 105.869 310.683 106.48C309.692 107.337 308.835 108.337 308.138 109.446C306.508 111.943 305.227 115.395 303.732 119.419C302.002 124.014 300.505 128.693 299.247 133.439V133.439C299.013 133.877 298.7 134.268 298.325 134.592C298.131 134.769 297.901 134.901 297.651 134.981C297.401 135.061 297.137 135.085 296.877 135.053C296.366 134.923 295.905 134.647 295.549 134.258C295.175 133.916 294.825 133.55 294.475 133.177C293.785 132.417 293.049 131.7 292.273 131.029C291.522 130.307 290.523 129.9 289.481 129.892C288.96 129.981 288.464 130.179 288.024 130.472C287.584 130.765 287.211 131.147 286.928 131.594C286.364 132.56 286.06 133.656 286.046 134.775C285.911 137.05 286.571 139.348 286.968 141.726C287.366 144.103 287.867 146.545 288.328 149.034C288.567 150.283 288.797 151.539 289.036 152.812L289.394 154.736C289.503 155.072 289.539 155.428 289.499 155.779C289.459 156.13 289.345 156.469 289.163 156.772C289.044 156.931 288.879 157.051 288.69 157.115C288.501 157.179 288.297 157.184 288.105 157.13C287.762 157.03 287.441 156.865 287.159 156.645L285.569 155.436C284.486 154.618 283.361 153.859 282.197 153.161C281.032 152.436 279.76 151.9 278.427 151.571C277.768 151.416 277.082 151.416 276.423 151.571C275.767 151.737 275.188 152.125 274.785 152.668C274.02 153.849 273.644 155.24 273.711 156.645C273.714 158.092 273.855 159.535 274.133 160.955C274.706 163.874 275.518 166.741 276.558 169.528C276.861 170.24 277.093 170.981 277.25 171.739C277.288 171.953 277.282 172.173 277.231 172.386C277.181 172.598 277.087 172.797 276.956 172.971C276.885 173.054 276.808 173.131 276.725 173.202C276.635 173.283 276.53 173.345 276.415 173.385C276.173 173.421 275.926 173.364 275.723 173.226C275.063 172.802 274.447 172.312 273.886 171.762L272.184 170.172C271.07 169.093 269.859 168.119 268.566 167.261C267.922 166.838 267.216 166.516 266.475 166.307C266.122 166.198 265.751 166.165 265.385 166.21C265.019 166.255 264.666 166.378 264.351 166.569C263.737 167.015 263.309 167.672 263.15 168.414C262.959 169.174 262.863 169.954 262.864 170.737C262.871 172.345 263.072 173.947 263.461 175.508C264.246 178.681 265.407 181.748 266.92 184.646C268.425 187.616 270.145 190.474 272.065 193.195C273.026 194.575 274.062 195.903 275.167 197.171C276.232 198.491 277.314 199.803 278.395 201.147V201.195L278.205 201.115L283.262 200.384C284.938 200.184 286.603 199.897 288.249 199.525C291.494 198.795 294.683 197.836 297.792 196.654C300.859 195.52 303.782 194.028 306.5 192.209C307.834 191.325 309.055 190.281 310.134 189.099C310.666 188.52 311.123 187.876 311.494 187.183C311.873 186.526 311.998 185.754 311.844 185.011C311.742 184.656 311.564 184.327 311.324 184.046C311.084 183.765 310.787 183.538 310.452 183.381C309.761 183.043 309.024 182.808 308.265 182.681C306.731 182.449 305.18 182.356 303.629 182.403H301.307C300.508 182.434 299.709 182.384 298.921 182.252C298.677 182.22 298.454 182.095 298.301 181.902C298.242 181.794 298.207 181.675 298.197 181.552C298.185 181.444 298.185 181.334 298.197 181.226C298.222 181.011 298.288 180.802 298.393 180.612C298.498 180.423 298.64 180.255 298.81 180.121C299.436 179.667 300.104 179.276 300.806 178.952C303.452 177.591 305.982 176.013 308.369 174.236C309.524 173.374 310.589 172.399 311.55 171.325C312.543 170.332 313.199 169.053 313.426 167.667C313.493 166.992 313.324 166.315 312.949 165.75C312.569 165.19 312.062 164.727 311.47 164.398C310.271 163.739 308.974 163.275 307.629 163.023C306.299 162.755 304.956 162.561 303.605 162.442L301.601 162.251C301.243 162.231 300.894 162.136 300.575 161.973C300.397 161.881 300.252 161.738 300.156 161.562C300.061 161.386 300.022 161.186 300.042 160.987C300.115 160.642 300.26 160.317 300.467 160.032C300.674 159.747 300.938 159.509 301.243 159.333L302.834 158.156L305.895 155.826L311.812 151.332C313.713 149.845 315.741 148.589 317.172 146.807C317.905 145.975 318.409 144.966 318.635 143.881C318.728 143.359 318.709 142.824 318.58 142.31C318.451 141.796 318.215 141.315 317.888 140.899C317.541 140.515 317.091 140.239 316.592 140.103C316.093 139.955 315.577 139.87 315.057 139.849C314.032 139.822 313.007 139.859 311.987 139.96C311.478 139.96 310.969 140.032 310.468 140.04C309.946 140.079 309.424 139.966 308.965 139.714C308.746 139.565 308.561 139.371 308.424 139.145C308.287 138.918 308.2 138.665 308.17 138.401C308.111 137.907 308.141 137.406 308.257 136.922C310.534 132.61 312.591 128.185 314.421 123.665C316.011 119.689 317.387 116.269 317.88 113.327C318.121 112.043 318.175 110.73 318.039 109.43C317.936 108.485 317.618 107.577 317.108 106.774C316.8 106.283 316.381 105.872 315.884 105.573C315.715 105.47 315.536 105.382 315.351 105.311C315.543 105.363 315.728 105.44 315.9 105.541C316.411 105.834 316.847 106.243 317.172 106.734C317.691 107.544 318.02 108.46 318.134 109.414C318.289 110.725 318.249 112.052 318.015 113.351C317.538 116.301 316.186 119.713 314.603 123.689C312.812 128.261 310.789 132.739 308.544 137.105V137.105C308.434 137.552 308.407 138.016 308.464 138.473C308.486 138.698 308.555 138.916 308.667 139.112C308.78 139.308 308.933 139.478 309.116 139.61C309.531 139.83 310 139.926 310.468 139.889C310.961 139.889 311.462 139.841 311.971 139.801C313.004 139.697 314.043 139.657 315.081 139.682C315.62 139.703 316.154 139.791 316.671 139.944C317.218 140.09 317.713 140.384 318.103 140.795C318.449 141.241 318.699 141.754 318.836 142.302C318.973 142.85 318.994 143.42 318.898 143.976C318.667 145.116 318.14 146.174 317.371 147.046C315.9 148.875 313.856 150.147 311.971 151.642L306.062 156.144L303.009 158.466L301.458 159.651C301.196 159.826 300.958 160.034 300.75 160.271C300.559 160.498 300.432 160.773 300.384 161.066C300.37 161.199 300.397 161.332 300.461 161.448C300.525 161.565 300.623 161.659 300.742 161.718C301.023 161.855 301.329 161.933 301.641 161.949L303.645 162.14C305.007 162.256 306.361 162.45 307.701 162.72C309.092 162.977 310.434 163.452 311.677 164.128C312.311 164.493 312.854 164.996 313.267 165.599C313.682 166.232 313.872 166.985 313.808 167.738C313.572 169.205 312.885 170.561 311.844 171.619C310.856 172.712 309.764 173.705 308.583 174.586C306.181 176.381 303.636 177.977 300.973 179.357C300.296 179.664 299.652 180.037 299.048 180.471C298.916 180.572 298.806 180.699 298.724 180.844C298.642 180.988 298.59 181.148 298.571 181.314C298.563 181.393 298.563 181.473 298.571 181.552C298.571 181.616 298.571 181.767 298.627 181.759C298.729 181.85 298.856 181.909 298.993 181.926C299.739 182.047 300.495 182.094 301.251 182.069H303.573C305.148 182.012 306.724 182.105 308.281 182.347C309.084 182.472 309.862 182.722 310.587 183.087C310.971 183.27 311.311 183.533 311.585 183.858C311.86 184.183 312.062 184.563 312.178 184.972C312.358 185.807 312.222 186.68 311.796 187.421C311.412 188.144 310.936 188.815 310.381 189.417C309.28 190.625 308.036 191.694 306.675 192.598C303.933 194.442 300.98 195.951 297.879 197.091C294.746 198.287 291.53 199.254 288.257 199.986C286.606 200.36 284.936 200.647 283.254 200.845L278.189 201.585H278.069L277.998 201.489H277.958L274.729 197.513C273.625 196.242 272.587 194.915 271.62 193.537C269.685 190.795 267.952 187.917 266.435 184.924C264.915 181.995 263.748 178.895 262.959 175.691C262.557 174.108 262.352 172.481 262.347 170.848C262.348 170.027 262.45 169.21 262.649 168.414C262.837 167.581 263.324 166.845 264.017 166.347C264.379 166.123 264.785 165.979 265.208 165.924C265.63 165.869 266.059 165.905 266.467 166.029C267.245 166.249 267.985 166.587 268.661 167.031C269.976 167.9 271.206 168.89 272.336 169.989L274.037 171.58C274.579 172.105 275.17 172.576 275.803 172.987C275.916 173.069 276.053 173.113 276.193 173.114C276.193 173.114 276.312 173.043 276.367 173.003L276.542 172.828C276.639 172.694 276.707 172.542 276.742 172.38C276.778 172.219 276.78 172.052 276.749 171.89C276.598 171.161 276.375 170.45 276.081 169.766C275.036 166.959 274.222 164.07 273.648 161.13C273.365 159.686 273.224 158.219 273.226 156.748C273.163 155.261 273.569 153.792 274.387 152.549C274.841 151.945 275.486 151.514 276.216 151.324C276.93 151.158 277.673 151.158 278.387 151.324C279.754 151.648 281.061 152.184 282.26 152.915C283.438 153.614 284.575 154.382 285.664 155.213L287.255 156.422C287.492 156.614 287.761 156.762 288.05 156.859C288.178 156.897 288.315 156.894 288.441 156.851C288.568 156.809 288.678 156.728 288.758 156.621C288.915 156.384 289.005 156.109 289.02 155.826C289.028 155.51 288.993 155.194 288.917 154.887C288.797 154.243 288.686 153.607 288.567 152.971C288.328 151.698 288.098 150.434 287.867 149.193C287.414 146.696 286.96 144.263 286.523 141.885C286.086 139.507 285.473 137.201 285.608 134.855C285.632 133.692 285.955 132.555 286.547 131.554C286.853 131.07 287.259 130.656 287.738 130.341C288.216 130.026 288.756 129.816 289.322 129.725C289.885 129.679 290.45 129.792 290.952 130.051C291.441 130.288 291.897 130.585 292.312 130.934C293.099 131.614 293.843 132.341 294.539 133.113C294.878 133.484 295.228 133.842 295.589 134.187C295.912 134.529 296.326 134.775 296.782 134.894C297.007 134.92 297.234 134.896 297.45 134.826C297.665 134.756 297.863 134.641 298.03 134.489C298.379 134.188 298.67 133.827 298.889 133.423V133.423C300.163 128.669 301.681 123.984 303.438 119.387C304.949 115.371 306.253 111.911 307.915 109.414C308.626 108.299 309.5 107.296 310.508 106.44C311.25 105.825 312.123 105.39 313.061 105.168C313.636 105.032 314.235 105.032 314.81 105.168C315.043 105.196 315.268 105.263 315.478 105.367V105.367Z" fill="#5C5C5C"/>
<path d="M311.303 116.182C311.289 116.273 311.263 116.361 311.224 116.445L310.953 117.192C310.691 117.868 310.325 118.83 309.864 120.047C308.893 122.552 307.518 126.139 305.816 130.552L292.607 165.257C287.469 178.777 282.761 191.079 279.278 199.923C277.544 204.344 276.097 207.915 275.111 210.38C274.618 211.589 274.228 212.535 273.95 213.203C273.815 213.514 273.719 213.752 273.64 213.943L273.52 214.182C273.535 214.093 273.562 214.008 273.6 213.927C273.664 213.736 273.759 213.49 273.87 213.18C274.133 212.496 274.499 211.541 274.96 210.317C275.93 207.812 277.306 204.233 279.008 199.819L292.217 165.13C297.354 151.571 302.054 139.316 305.545 130.473C307.279 126.051 308.726 122.473 309.713 120.015C310.206 118.806 310.595 117.852 310.874 117.184C311.009 116.882 311.104 116.635 311.184 116.453L311.303 116.182Z" fill="#5C5C5C"/>
<path d="M311.733 143.658C311.104 144.108 310.439 144.505 309.744 144.843L304.877 147.547C302.969 148.605 301.235 149.551 299.955 150.195C299.282 150.577 298.57 150.886 297.831 151.118C298.465 150.676 299.129 150.28 299.82 149.933L304.671 147.189C306.579 146.131 308.321 145.209 309.609 144.581C310.286 144.206 310.997 143.897 311.733 143.658V143.658Z" fill="#5C5C5C"/>
<path d="M297.187 150.609C297.084 150.656 295.191 147.046 292.964 142.545C290.738 138.044 288.988 134.354 289.108 134.298C289.227 134.242 291.104 137.861 293.338 142.362C295.573 146.863 297.291 150.553 297.187 150.609Z" fill="#5C5C5C"/>
<path d="M290.237 171.786C289.601 171.317 289.015 170.784 288.487 170.196C287.453 169.162 286.101 167.691 284.63 165.989C283.159 164.287 281.966 162.681 281.123 161.488C280.628 160.872 280.198 160.205 279.843 159.5C280.389 160.067 280.894 160.673 281.354 161.313C282.26 162.458 283.509 164.025 284.948 165.718C286.388 167.412 287.724 168.899 288.694 169.989C289.253 170.548 289.768 171.149 290.237 171.786V171.786Z" fill="#5C5C5C"/>
<path d="M304.782 168.367C304.103 168.638 303.4 168.846 302.683 168.987C301.378 169.313 299.565 169.735 297.561 170.18C295.557 170.625 293.728 170.975 292.408 171.261C291.699 171.44 290.975 171.549 290.245 171.587C290.924 171.318 291.627 171.113 292.344 170.975C293.648 170.649 295.462 170.18 297.474 169.774C299.486 169.369 301.299 168.979 302.619 168.701C303.328 168.523 304.052 168.411 304.782 168.367V168.367Z" fill="#5C5C5C"/>
<path d="M301.02 187.851C300.138 188.156 299.234 188.398 298.317 188.574C296.631 188.964 294.34 189.481 291.732 190.022C289.123 190.562 286.809 191.04 285.115 191.358C284.208 191.574 283.285 191.721 282.356 191.795C283.238 191.487 284.142 191.245 285.06 191.071C286.738 190.682 289.036 190.165 291.644 189.624C294.253 189.083 296.559 188.606 298.253 188.288C299.163 188.071 300.088 187.925 301.02 187.851V187.851Z" fill="#5C5C5C"/>
<path d="M282.769 191.572C282.548 191.419 282.347 191.237 282.173 191.032C281.807 190.666 281.298 190.125 280.67 189.441C279.421 188.073 277.743 186.141 275.978 183.938C274.212 181.735 272.693 179.667 271.636 178.148C271.103 177.393 270.689 176.773 270.411 176.335C270.245 176.12 270.111 175.881 270.013 175.627C270.213 175.809 270.389 176.015 270.538 176.24L271.874 177.981C272.988 179.453 274.538 181.481 276.304 183.675C278.069 185.87 279.7 187.835 280.892 189.242C281.569 189.977 282.196 190.755 282.769 191.572V191.572Z" fill="#5C5C5C"/>
<path d="M274.817 244.846C261.011 233.713 259.007 214.682 260.741 197.815C261.035 195 260.924 192.002 262.435 189.616C263.946 187.23 267.206 185.759 269.648 187.119C271.675 188.248 272.415 190.753 273.449 192.845C274.833 195.64 276.977 197.989 279.636 199.62C281.37 200.678 283.557 201.402 285.394 200.543C287.923 199.366 288.439 196.026 288.614 193.218L289.593 177.52C289.768 174.705 289.958 171.842 291.016 169.241C292.074 166.641 294.197 164.295 296.893 163.722C299.589 163.15 302.81 164.931 303.184 167.699C303.21 168.867 303.157 170.036 303.024 171.198C303.024 172.367 303.478 173.695 304.559 174.092C305.641 174.49 306.834 173.782 307.74 173.019C310.834 170.387 313.045 166.872 315.136 163.364C317.228 159.857 319.256 156.263 322.103 153.352C324.95 150.442 328.743 148.239 332.783 148.286C336.823 148.334 340.926 151.11 341.674 155.126C342.421 159.142 339.837 163.015 337.101 166.044C333.04 170.549 328.347 174.441 323.168 177.6C322.158 178.055 321.321 178.825 320.783 179.794C320.043 181.624 321.689 183.604 323.494 184.351C325.538 185.186 327.829 185.147 330 185.536C332.171 185.926 334.477 187.071 335.161 189.194C336.115 192.145 333.507 194.984 331.01 196.797C326.033 200.414 320.473 203.153 314.572 204.893C312.448 205.505 310.23 206.014 308.464 207.35C306.699 208.686 305.522 211.143 306.396 213.187C307.271 215.231 309.808 216.05 311.963 215.796C314.118 215.541 316.17 214.499 318.285 213.863C322.262 212.67 327.208 213.283 329.419 216.782C330.89 219.088 330.827 222.15 329.825 224.734C328.707 227.244 327.098 229.505 325.093 231.383C318.476 238.309 310.139 243.353 300.933 246C291.772 248.489 283.437 248.759 274.753 244.894" fill="#9BC5F3"/>
<g opacity="0.1">
<path opacity="0.1" d="M274.817 244.846C261.011 233.713 259.007 214.682 260.741 197.815C261.035 195 260.924 192.002 262.435 189.616C263.946 187.23 267.206 185.759 269.648 187.119C271.675 188.248 272.415 190.753 273.449 192.845C274.833 195.64 276.977 197.989 279.636 199.62C281.37 200.678 283.557 201.402 285.394 200.543C287.923 199.366 288.439 196.026 288.614 193.218L289.593 177.52C289.768 174.705 289.958 171.842 291.016 169.241C292.074 166.641 294.197 164.295 296.893 163.722C299.589 163.15 302.81 164.931 303.184 167.699C303.21 168.867 303.157 170.036 303.024 171.198C303.024 172.367 303.478 173.695 304.559 174.092C305.641 174.49 306.834 173.782 307.74 173.019C310.834 170.387 313.045 166.872 315.136 163.364C317.228 159.857 319.256 156.263 322.103 153.352C324.95 150.442 328.743 148.239 332.783 148.286C336.823 148.334 340.926 151.11 341.674 155.126C342.421 159.142 339.837 163.015 337.101 166.044C333.04 170.549 328.347 174.441 323.168 177.6C322.158 178.055 321.321 178.825 320.783 179.794C320.043 181.624 321.689 183.604 323.494 184.351C325.538 185.186 327.829 185.147 330 185.536C332.171 185.926 334.477 187.071 335.161 189.194C336.115 192.145 333.507 194.984 331.01 196.797C326.033 200.414 320.473 203.153 314.572 204.893C312.448 205.505 310.23 206.014 308.464 207.35C306.699 208.686 305.522 211.143 306.396 213.187C307.271 215.231 309.808 216.05 311.963 215.796C314.118 215.541 316.17 214.499 318.285 213.863C322.262 212.67 327.208 213.283 329.419 216.782C330.89 219.088 330.827 222.15 329.825 224.734C328.707 227.244 327.098 229.505 325.093 231.383C318.476 238.309 310.139 243.353 300.933 246C291.772 248.489 283.437 248.759 274.753 244.894" fill="black"/>
</g>
<path d="M273.735 257.38C275.06 249.595 277.127 241.955 279.906 234.564C283.346 225.547 287.3 216.734 291.748 208.169L295.207 201.41C296.352 199.191 297.482 196.996 298.722 194.913C301.11 190.924 303.715 187.069 306.524 183.365C309.188 179.811 311.836 176.534 314.341 173.488C316.846 170.442 319.248 167.659 321.538 165.21C325.135 161.327 329.033 157.734 333.196 154.466C334.668 153.313 335.837 152.454 336.64 151.881L337.555 151.237C337.655 151.16 337.762 151.091 337.873 151.03C337.789 151.125 337.693 151.208 337.586 151.277L336.704 151.969C335.908 152.565 334.771 153.448 333.324 154.633C329.219 157.95 325.37 161.57 321.808 165.464C319.542 167.922 317.164 170.721 314.651 173.767C312.138 176.812 309.522 180.129 306.881 183.66C304.088 187.351 301.502 191.196 299.136 195.175C297.903 197.251 296.75 199.43 295.645 201.648L292.185 208.408C287.749 216.956 283.791 225.744 280.328 234.731C277.539 242.091 275.444 249.694 274.069 257.444" fill="#5C5C5C"/>
<path d="M298.873 194.889C298.761 194.492 298.694 194.084 298.674 193.672C298.587 192.877 298.484 191.747 298.38 190.332C298.181 187.516 298.03 183.604 297.879 179.301C297.728 174.999 297.521 171.094 297.275 168.279C297.155 166.88 297.052 165.742 296.965 164.955C296.893 164.548 296.869 164.135 296.893 163.722C297.023 164.113 297.113 164.515 297.163 164.923C297.307 165.719 297.474 166.84 297.641 168.247C297.983 171.055 298.245 174.959 298.436 179.278C298.627 183.596 298.698 187.373 298.786 190.316C298.841 191.644 298.881 192.757 298.921 193.656C298.945 194.067 298.929 194.48 298.873 194.889V194.889Z" fill="#5C5C5C"/>
<path d="M335.423 190.618C334.942 190.693 334.454 190.72 333.968 190.698C333.037 190.698 331.693 190.698 329.992 190.809C326.667 190.944 322.039 191.278 317.021 191.883C312.003 192.487 307.422 193.226 304.146 193.863C302.508 194.165 301.187 194.451 300.273 194.658C299.804 194.782 299.325 194.864 298.841 194.904C299.289 194.716 299.752 194.567 300.225 194.459C301.124 194.205 302.436 193.871 304.074 193.513C307.335 192.789 311.892 191.986 316.957 191.374C321.281 190.846 325.629 190.541 329.984 190.459C331.654 190.459 333.006 190.459 333.96 190.507C334.45 190.5 334.94 190.538 335.423 190.618Z" fill="#5C5C5C"/>
<path d="M280.399 233.912C280.305 233.773 280.233 233.62 280.185 233.458L279.652 232.107C279.199 230.938 278.586 229.22 277.863 227.096C276.407 222.842 274.578 216.901 272.646 210.324C270.713 203.748 268.948 197.791 267.58 193.513C266.912 191.429 266.355 189.719 265.95 188.447L265.512 187.071C265.45 186.913 265.41 186.747 265.393 186.578C265.483 186.72 265.556 186.872 265.608 187.031C265.751 187.397 265.926 187.827 266.133 188.383C266.586 189.552 267.198 191.27 267.93 193.393C269.385 197.648 271.214 203.589 273.139 210.173C275.063 216.758 276.845 222.699 278.212 226.977C278.881 229.061 279.429 230.771 279.803 232.043L280.24 233.419C280.316 233.575 280.37 233.741 280.399 233.912V233.912Z" fill="#5C5C5C"/>
<path d="M329.419 221.745C329.265 221.827 329.098 221.883 328.926 221.912L327.502 222.285L322.254 223.598C317.816 224.703 311.717 226.301 304.973 228.083C298.229 229.864 292.106 231.407 287.644 232.425C285.418 232.934 283.612 233.332 282.356 233.578L280.908 233.856C280.742 233.898 280.571 233.917 280.399 233.912C280.554 233.838 280.717 233.785 280.885 233.753L282.316 233.379L287.565 232.067C291.994 230.962 298.102 229.355 304.846 227.574C311.589 225.792 317.713 224.25 322.166 223.232C324.393 222.723 326.206 222.333 327.455 222.087L328.902 221.808C329.071 221.767 329.245 221.746 329.419 221.745V221.745Z" fill="#5C5C5C"/>
<path d="M278.03 25.3162H85.172V289.58H278.03V25.3162Z" fill="#455A64"/>
<path d="M270.403 273.865H234.688H101.236V35.9963H270.403V244.274V273.865Z" fill="#E0E0E0"/>
<path d="M267.731 269.452H232.334H100.083V32.8552H267.731V240.02V269.452Z" fill="#EBEBEB"/>
<path d="M249.718 251.042L230.41 266.764H96.9577V33.4517H266.125V237.737L249.718 251.042Z" fill="#FAFAFA"/>
<path d="M249.718 251.018C249.718 251.018 250.06 250.724 250.752 250.159L253.846 247.63L266.085 237.665V237.713C266.085 204.153 266.021 129.558 265.966 33.4277L266.148 33.6185H98.4527H96.9815L97.1883 33.4118C97.1883 121.129 97.1883 202.046 97.1406 266.724L96.9815 266.557L230.433 266.653H230.386L244.891 254.891L248.526 251.956C249.321 251.304 249.742 250.986 249.742 250.986L248.549 251.98L244.915 254.994L230.457 266.812L96.9577 266.923H96.7906V266.756C96.7906 202.078 96.7906 121.16 96.7509 33.4436V33.2368H98.4289H266.125H266.315V33.4197C266.26 129.582 266.212 204.145 266.196 237.705L253.909 247.622L250.8 250.223L249.718 251.018Z" fill="#5C5C5C"/>
<path d="M158.717 17.1489H204.961C207.946 17.1489 210.808 18.3345 212.918 20.4448C215.029 22.5551 216.214 25.4174 216.214 28.4018V40.8794H146.979V28.879C146.981 25.7672 148.219 22.7837 150.42 20.5841C152.621 18.3845 155.606 17.1489 158.717 17.1489V17.1489Z" fill="#9BC5F3"/>
<path d="M163.942 17.1488L161.413 4.34521H201.279L199.061 17.1488H163.942Z" fill="#9BC5F3"/>
<path d="M143.146 99.1238H114.652V70.6218H143.146V99.1238ZM115.447 98.3286H142.351V71.4171H115.447V98.3286Z" fill="#9BC5F3"/>
<path d="M243.865 77.5088C243.865 77.6201 224.024 77.7155 199.562 77.7155C175.1 77.7155 155.25 77.6201 155.25 77.5088C155.25 77.3974 175.084 77.302 199.562 77.302C224.04 77.302 243.865 77.3895 243.865 77.5088Z" fill="#5C5C5C"/>
<path d="M243.865 83.4255C243.865 83.5448 224.024 83.6323 199.562 83.6323C175.1 83.6323 155.25 83.5448 155.25 83.4255C155.25 83.3062 175.084 83.2188 199.562 83.2188C224.04 83.2188 243.865 83.3142 243.865 83.4255Z" fill="#5C5C5C"/>
<path d="M243.865 89.3501C243.865 89.4614 224.024 89.5568 199.562 89.5568C175.1 89.5568 155.25 89.4614 155.25 89.3501C155.25 89.2387 175.084 89.1433 199.562 89.1433C224.04 89.1433 243.865 89.2387 243.865 89.3501Z" fill="#5C5C5C"/>
<path d="M243.865 95.2749C243.865 95.3862 224.024 95.4817 199.562 95.4817C175.1 95.4817 155.25 95.3862 155.25 95.2749C155.25 95.1636 175.084 95.0681 199.562 95.0681C224.04 95.0681 243.865 95.1476 243.865 95.2749Z" fill="#5C5C5C"/>
<path d="M143.146 143.046H114.652V114.544H143.146V143.046ZM115.447 142.251H142.351V115.339H115.447V142.251Z" fill="#9BC5F3"/>
<path d="M120.314 129.383L124.1 125.32L130.406 130.362L144.84 116.349L148.299 120.429L130.128 138.354L120.314 129.383Z" fill="#9BC5F3"/>
<path d="M243.865 121.431C243.865 121.542 224.024 121.638 199.562 121.638C175.1 121.638 155.25 121.542 155.25 121.431C155.25 121.32 175.084 121.224 199.562 121.224C224.04 121.224 243.865 121.32 243.865 121.431Z" fill="#5C5C5C"/>
<path d="M243.865 127.355C243.865 127.467 224.024 127.562 199.562 127.562C175.1 127.562 155.25 127.467 155.25 127.355C155.25 127.244 175.084 127.149 199.562 127.149C224.04 127.149 243.865 127.236 243.865 127.355Z" fill="#5C5C5C"/>
<path d="M243.865 133.272C243.865 133.391 224.024 133.479 199.562 133.479C175.1 133.479 155.25 133.391 155.25 133.272C155.25 133.153 175.084 133.065 199.562 133.065C224.04 133.065 243.865 133.161 243.865 133.272Z" fill="#5C5C5C"/>
<path d="M243.865 139.197C243.865 139.308 224.024 139.404 199.562 139.404C175.1 139.404 155.25 139.308 155.25 139.197C155.25 139.086 175.084 138.99 199.562 138.99C224.04 138.99 243.865 139.086 243.865 139.197Z" fill="#5C5C5C"/>
<path d="M143.146 185.552H114.652V157.05H143.146V185.552ZM115.447 184.757H142.351V157.846H115.447V184.757Z" fill="#9BC5F3"/>
<path d="M120.314 171.89L124.1 167.826L130.406 172.868L144.84 158.856L148.299 162.935L130.128 180.86L120.314 171.89Z" fill="#9BC5F3"/>
<path d="M243.865 163.937C243.865 164.049 224.024 164.144 199.562 164.144C175.1 164.144 155.25 164.049 155.25 163.937C155.25 163.826 175.084 163.73 199.562 163.73C224.04 163.73 243.865 163.818 243.865 163.937Z" fill="#5C5C5C"/>
<path d="M243.865 169.854C243.865 169.973 224.024 170.061 199.562 170.061C175.1 170.061 155.25 169.973 155.25 169.854C155.25 169.735 175.084 169.647 199.562 169.647C224.04 169.647 243.865 169.743 243.865 169.854Z" fill="#5C5C5C"/>
<path d="M243.865 175.779C243.865 175.898 224.024 175.985 199.562 175.985C175.1 175.985 155.25 175.898 155.25 175.779C155.25 175.659 175.084 175.572 199.562 175.572C224.04 175.572 243.865 175.667 243.865 175.779Z" fill="#5C5C5C"/>
<path d="M243.865 181.703C243.865 181.815 224.024 181.91 199.562 181.91C175.1 181.91 155.25 181.815 155.25 181.703C155.25 181.592 175.084 181.497 199.562 181.497C224.04 181.497 243.865 181.592 243.865 181.703Z" fill="#5C5C5C"/>
<path d="M143.146 226.596H114.652V198.094H143.146V226.596ZM115.447 225.8H142.351V198.889H115.447V225.8Z" fill="#9BC5F3"/>
<path d="M120.314 212.933L124.1 208.869L130.406 213.911L144.84 199.899L148.299 203.971L130.128 221.896L120.314 212.933Z" fill="#9BC5F3"/>
<path d="M243.865 204.972C243.865 205.092 224.024 205.179 199.562 205.179C175.1 205.179 155.25 205.092 155.25 204.972C155.25 204.853 175.084 204.766 199.562 204.766C224.04 204.766 243.865 204.893 243.865 204.972Z" fill="#5C5C5C"/>
<path d="M243.865 210.897C243.865 211.009 224.024 211.104 199.562 211.104C175.1 211.104 155.25 211.009 155.25 210.897C155.25 210.786 175.084 210.69 199.562 210.69C224.04 210.69 243.865 210.786 243.865 210.897Z" fill="#5C5C5C"/>
<path d="M243.865 216.822C243.865 216.933 224.024 217.029 199.562 217.029C175.1 217.029 155.25 216.933 155.25 216.822C155.25 216.711 175.084 216.615 199.562 216.615C224.04 216.615 243.865 216.703 243.865 216.822Z" fill="#5C5C5C"/>
<path d="M243.865 222.739C243.865 222.858 224.024 222.945 199.562 222.945C175.1 222.945 155.25 222.858 155.25 222.739C155.25 222.619 175.084 222.532 199.562 222.532C224.04 222.532 243.865 222.627 243.865 222.739Z" fill="#5C5C5C"/>
<path d="M235.714 228.138L217.169 266.549H230.41L235.714 228.138Z" fill="#E0E0E0"/>
<path d="M230.41 266.764L235.714 228.353L266.125 237.737L230.41 266.764Z" fill="#FAFAFA"/>
<path d="M230.41 266.764L240.637 258.342L265.997 237.578L266.069 237.928L254.323 234.318L235.69 228.536L235.937 228.377C234.346 239.511 232.986 249.093 232.024 255.885C231.062 262.494 230.569 265.905 230.433 266.764C230.43 266.706 230.43 266.647 230.433 266.589L230.505 266.064C230.569 265.563 230.656 264.863 230.775 263.973C231.022 262.104 231.372 259.424 231.817 256.02C232.74 249.173 234.028 239.542 235.531 228.29V228.067L235.746 228.131L254.426 233.888L266.164 237.515L266.53 237.626L266.236 237.864C255.969 246.143 246.991 253.38 240.565 258.541L233.066 264.561L231.062 266.152L230.553 266.557L230.41 266.764Z" fill="#5C5C5C"/>
<g opacity="0.3">
<path opacity="0.3" d="M198.52 4.34521L196.325 17.1488H199.061L201.279 4.34521H197.788" fill="black"/>
</g>
<path d="M81.7523 139.38C82.7112 139.452 83.6747 139.331 84.5855 139.022C85.4963 138.714 86.3356 138.226 87.0533 137.586C87.7711 136.946 88.3526 136.168 88.763 135.298C89.1735 134.429 89.4046 133.486 89.4425 132.525C89.5936 128.628 89.7288 124.692 89.7288 124.692C89.7288 124.692 95.6296 124.143 96.0908 118.33C96.5521 112.516 96.3214 99.0128 96.3214 99.0128C93.0868 97.3808 89.4748 96.6427 85.8592 96.8748C82.2436 97.1069 78.7556 98.3008 75.7561 100.333L76.114 120.882V131.944C76.1219 135.618 78.0544 139.102 81.7523 139.38Z" fill="#FFBE9D"/>
<path d="M90.2377 111.172C89.8067 110.553 89.1579 110.119 88.4209 109.956C87.6838 109.794 86.9127 109.916 86.2615 110.297C85.6005 110.757 85.1241 111.436 84.9173 112.213C84.7105 112.991 84.7866 113.817 85.1322 114.544C85.4333 115.083 85.8433 115.554 86.3362 115.927C86.829 116.299 87.394 116.565 87.9951 116.707C88.5281 116.823 89.0005 117.129 89.324 117.568C89.6475 118.008 89.7999 118.55 89.7526 119.093C89.5078 120.628 88.7906 122.048 87.7009 123.157C85.8995 124.99 83.5018 126.118 80.9412 126.338C78.452 126.632 75.605 126.115 74.1576 124.071C73.1 122.584 73.0284 120.636 72.9886 118.815C72.8985 114.51 72.8084 110.205 72.7182 105.9C72.6246 104.348 72.7234 102.791 73.0125 101.263C73.3171 99.7227 74.1918 98.3538 75.4619 97.4301C76.8854 96.4917 78.6827 96.4122 80.297 95.8953C82.3249 95.2352 84.0427 93.8992 85.9354 92.929C87.8281 91.9588 90.1423 91.3782 92.043 92.3326C93.4108 93.0165 94.3253 94.3764 95.6455 95.1318C97.5382 96.2054 100.107 95.9271 101.021 98.7423C101.343 99.7049 101.343 100.746 101.021 101.709C99.7411 105.486 95.0649 107.013 91.693 105.383C91.6294 106.019 92.2577 107.442 91.5817 109.462C91.367 110.114 91.2954 111.093 90.2855 111.117" fill="#5C5C5C"/>
<path d="M74.1179 99.1241C75.0447 97.2772 75.6779 95.297 75.9947 93.2551C76.1446 92.2323 76.0569 91.1888 75.7383 90.2054C75.4197 89.2221 74.8789 88.3254 74.1576 87.5849C73.0931 86.6606 71.7175 86.1745 70.3086 86.225C68.9702 86.3012 67.688 86.7891 66.6375 87.6218C65.5869 88.4546 64.8193 89.5916 64.4396 90.8773C64.112 92.1735 64.1626 93.5365 64.5854 94.8049C65.0082 96.0733 65.7856 97.1941 66.8254 98.0346C67.8886 98.8512 69.1488 99.3725 70.4782 99.5456C71.8077 99.7188 73.1593 99.5377 74.3962 99.0207" fill="#5C5C5C"/>
<path d="M75.2631 97.0165C75.2201 97.7304 74.9129 98.4028 74.4013 98.9026C73.8897 99.4025 73.2103 99.694 72.4956 99.7203C72.4956 99.6011 73.3544 99.3704 74.0861 98.607C74.8177 97.8435 75.1517 96.9847 75.2631 97.0165Z" fill="#9BC5F3"/>
<path d="M73.3465 98.448C72.8907 98.9258 72.3517 99.3165 71.756 99.6012C71.1193 99.9641 70.4047 100.169 69.6724 100.198C69.2074 100.223 68.7432 100.136 68.3185 99.9453C67.8937 99.7544 67.5209 99.4646 67.231 99.1002C66.9744 98.7165 66.8033 98.2823 66.7292 97.8267C66.6551 97.3712 66.6798 96.9051 66.8015 96.4599C66.9861 95.7534 67.3196 95.0945 67.7797 94.5274C68.1605 93.9899 68.6281 93.5196 69.1634 93.1357C68.8095 93.6854 68.4273 94.2163 68.0183 94.7263C67.6191 95.2801 67.3327 95.9069 67.1753 96.5712C67.0761 96.9629 67.0595 97.3709 67.1266 97.7694C67.1937 98.1678 67.343 98.5479 67.565 98.8854C67.8192 99.1959 68.1416 99.4435 68.5071 99.609C68.8726 99.7745 69.2714 99.8535 69.6724 99.8397C70.352 99.8288 71.0205 99.6658 71.6287 99.3626C72.6626 98.8298 73.3067 98.3844 73.3465 98.448Z" fill="#5C5C5C"/>
<path d="M63.4217 105.041C63.5416 105.243 63.6351 105.459 63.7 105.685C63.9062 106.281 64.1982 106.843 64.5669 107.355C64.812 107.725 65.1555 108.019 65.5587 108.205C65.9619 108.39 66.4088 108.459 66.8493 108.405C67.3764 108.256 67.8562 107.973 68.2421 107.585C68.628 107.196 68.907 106.714 69.0521 106.186C69.3378 105.074 69.5372 103.941 69.6486 102.798C69.7608 101.818 70.1467 100.889 70.7619 100.118C71.2026 99.6108 71.8028 99.2686 72.4638 99.1479C72.7028 99.0894 72.9545 99.1118 73.1795 99.2115C73.1795 99.2115 72.9171 99.2115 72.4956 99.3069C71.8983 99.472 71.3691 99.823 70.9846 100.309C70.4427 101.056 70.1105 101.935 70.0223 102.854C69.9306 104.024 69.7363 105.184 69.4418 106.321C69.2777 106.918 68.9577 107.46 68.5146 107.892C68.0715 108.324 67.5214 108.63 66.9208 108.778C66.3716 108.866 65.8091 108.759 65.3303 108.476C64.9331 108.235 64.5916 107.913 64.3283 107.53C63.9637 106.983 63.6947 106.378 63.533 105.741C63.4514 105.517 63.4136 105.279 63.4217 105.041V105.041Z" fill="#5C5C5C"/>
<path d="M60.5508 154.1C60.5508 154.1 57.5686 175.906 60.5508 178.674C63.533 181.441 66.388 180.519 66.388 180.519L72.0582 175.747L73.1715 154.068L60.5508 154.1Z" fill="#FFBE9D"/>
<path d="M122.143 92.8892L125.929 88.8255L132.235 93.8674L146.669 79.855L150.128 83.9346L131.957 101.86L122.143 92.8892Z" fill="#9BC5F3"/>
<path d="M139.925 93.9946L134.438 97.5176C134.192 95.3466 132.537 93.1994 132.617 94.2889C132.696 95.3784 132.617 101.033 132.617 101.033L122.843 121.622C121.515 124.882 118.819 126.934 116.807 127.419L107.654 130.139L111.225 142.219L123.949 138.004C125.573 137.466 127.048 136.555 128.257 135.344C129.465 134.132 130.373 132.655 130.907 131.03L139.655 104.373C140.236 102.656 140.703 100.902 141.055 99.124C141.436 96.8894 139.925 93.9946 139.925 93.9946Z" fill="#FFBE9D"/>
<path d="M94.9695 319.188L94.8264 313.088L83.3906 313.271L83.494 322.202L84.2097 322.241C87.3907 322.361 100.282 322.647 102.381 321.979C104.719 321.223 94.9695 319.188 94.9695 319.188Z" fill="#9BC5F3"/>
<g opacity="0.5">
<path opacity="0.5" d="M87.6452 322.05C87.4525 321.098 86.9178 320.249 86.1422 319.664C85.3783 319.07 84.4184 318.786 83.4542 318.869L83.5019 322.05H87.6452Z" fill="white"/>
</g>
<g opacity="0.4">
<path opacity="0.4" d="M99.7013 320.356C99.7013 320.356 103.121 321.279 102.707 321.852C102.294 322.424 89.2357 322.647 83.4622 322.201V321.947L98.6993 321.844C98.6993 321.844 99.073 320.396 99.7013 320.356Z" fill="white"/>
</g>
<path d="M83.327 321.939H83.5258H84.0904L86.174 321.994C87.9315 322.034 90.357 322.05 93.037 321.994C95.717 321.939 98.1505 321.867 99.9001 321.78L101.984 321.66L102.548 321.621H102.739H102.54H101.976L99.9001 321.7C98.1426 321.756 95.717 321.835 93.037 321.875C90.357 321.915 87.9315 321.875 86.174 321.875H84.0984H83.3031L83.327 321.939Z" fill="#5C5C5C"/>
<path d="M98.747 322.018C98.8297 321.673 98.9553 321.339 99.1208 321.024C99.321 320.734 99.5531 320.467 99.8126 320.229C99.4742 320.388 99.1915 320.645 99.0014 320.967C98.8113 321.289 98.7227 321.661 98.747 322.034V322.018Z" fill="#5C5C5C"/>
<path d="M95.3433 320.357C95.3433 320.357 95.5341 320.182 95.7012 319.919C95.8682 319.657 95.9636 319.418 95.9318 319.402C95.9 319.386 95.7409 319.577 95.5819 319.84C95.4228 320.102 95.3115 320.341 95.3433 320.357Z" fill="#5C5C5C"/>
<path d="M94.4128 319.887C94.4128 319.887 94.6117 319.792 94.8105 319.609C95.0093 319.426 95.1365 319.259 95.1127 319.235C95.0888 319.211 94.9059 319.33 94.715 319.505C94.5242 319.68 94.381 319.855 94.4128 319.887Z" fill="#5C5C5C"/>
<path d="M93.8084 318.814C93.9991 318.883 94.2038 318.905 94.4049 318.877C94.6066 318.901 94.8109 318.876 95.0013 318.806C94.8088 318.745 94.6059 318.723 94.4049 318.742C94.2032 318.719 93.999 318.744 93.8084 318.814Z" fill="#5C5C5C"/>
<path d="M93.5937 318.058C93.7945 318.181 94.0262 318.245 94.2617 318.241C94.4975 318.275 94.7381 318.239 94.9536 318.138C94.7262 318.116 94.4971 318.116 94.2697 318.138C94.0473 318.09 93.821 318.064 93.5937 318.058V318.058Z" fill="#5C5C5C"/>
<path d="M95.725 319.354C95.9669 319.399 96.2148 319.399 96.4566 319.354C96.7269 319.318 96.9932 319.257 97.2519 319.171C97.4064 319.123 97.5557 319.059 97.6972 318.98C97.742 318.957 97.7814 318.924 97.8129 318.884C97.8444 318.845 97.8673 318.799 97.8802 318.75C97.8895 318.695 97.8833 318.638 97.8623 318.586C97.8412 318.534 97.8061 318.489 97.7609 318.456C97.4775 318.324 97.1577 318.295 96.855 318.371C96.5524 318.448 96.2853 318.627 96.0988 318.877C95.9917 319.025 95.9135 319.193 95.8681 319.37C95.8542 319.436 95.8542 319.503 95.8681 319.569C95.9442 319.344 96.0542 319.132 96.1942 318.941C96.3582 318.746 96.5729 318.6 96.8145 318.519C97.1037 318.419 97.4206 318.436 97.6972 318.567C97.8086 318.654 97.7688 318.79 97.6416 318.869C97.5098 318.943 97.3714 319.004 97.228 319.052C96.9688 319.142 96.7029 319.211 96.4328 319.259C95.9954 319.33 95.725 319.33 95.725 319.354Z" fill="#5C5C5C"/>
<path d="M95.9079 319.41C95.9974 319.256 96.0258 319.075 95.9874 318.901C95.9574 318.709 95.884 318.527 95.7727 318.368C95.7098 318.261 95.6206 318.171 95.5136 318.107C95.4065 318.043 95.285 318.007 95.1604 318.002C95.1231 318.01 95.0878 318.025 95.0564 318.046C95.025 318.068 94.9981 318.095 94.9774 318.127C94.9567 318.159 94.9425 318.194 94.9357 318.232C94.9289 318.269 94.9296 318.307 94.9377 318.344C94.9554 318.461 94.9988 318.573 95.0649 318.67C95.1616 318.833 95.2822 318.981 95.4228 319.108C95.5363 319.24 95.6813 319.341 95.8443 319.402C95.8443 319.402 95.7012 319.275 95.4944 319.044C95.3753 318.908 95.2688 318.762 95.1763 318.607C95.0729 318.456 95.0013 318.177 95.1763 318.138C95.3512 318.098 95.55 318.297 95.6614 318.44C95.7679 318.582 95.8437 318.744 95.8841 318.917C95.906 319.08 95.914 319.245 95.9079 319.41Z" fill="#5C5C5C"/>
<path d="M83.5178 318.806C83.5178 318.806 83.8439 318.806 84.3608 318.806C85.0351 318.87 85.6775 319.123 86.2137 319.537C86.7499 319.951 87.158 320.508 87.3907 321.144C87.5736 321.629 87.5975 321.939 87.6213 321.939C87.637 321.863 87.637 321.785 87.6213 321.708C87.5954 321.501 87.5501 321.296 87.4862 321.096C87.2656 320.432 86.8504 319.849 86.2945 319.424C85.7386 318.998 85.0677 318.75 84.3687 318.71C84.16 318.687 83.9493 318.687 83.7405 318.71C83.6607 318.727 83.5849 318.759 83.5178 318.806Z" fill="#5C5C5C"/>
<path d="M84.6312 314.034C84.5601 314.814 84.5388 315.598 84.5676 316.38C84.5422 317.176 84.5661 317.973 84.6391 318.766C84.7115 317.973 84.7327 317.176 84.7028 316.38C84.7219 315.597 84.698 314.814 84.6312 314.034V314.034Z" fill="#5C5C5C"/>
<path d="M89.0608 320.913C89.6125 321.027 90.176 321.072 90.7387 321.048C91.3001 321.072 91.862 321.019 92.4088 320.889C92.4088 320.849 91.6135 320.889 90.7387 320.889C89.864 320.889 89.0687 320.873 89.0608 320.913Z" fill="#5C5C5C"/>
<path d="M86.8261 320.937C86.8261 320.937 86.8897 321.096 86.9613 321.271C87.0329 321.446 87.0885 321.589 87.1283 321.589C87.1681 321.589 87.184 321.406 87.0885 321.208C86.9931 321.009 86.8499 320.913 86.8261 320.937Z" fill="#5C5C5C"/>
<path d="M85.9593 319.903C85.9593 319.903 86.007 320.046 86.1342 320.166C86.2615 320.285 86.3728 320.356 86.3966 320.333C86.4205 320.309 86.3489 320.181 86.2296 320.07C86.1104 319.959 85.9911 319.871 85.9593 319.903Z" fill="#5C5C5C"/>
<path d="M84.7425 319.41C84.7425 319.41 84.9095 319.41 85.0765 319.498C85.2435 319.585 85.3628 319.641 85.3946 319.617C85.4264 319.593 85.331 319.434 85.1163 319.37C84.9016 319.307 84.7346 319.41 84.7425 319.41Z" fill="#5C5C5C"/>
<path d="M83.8836 319.227C83.8836 319.227 83.9313 319.323 84.0268 319.354C84.1222 319.386 84.2097 319.394 84.2256 319.354C84.2415 319.315 84.1699 319.259 84.0745 319.227C83.9791 319.195 83.8916 319.187 83.8836 319.227Z" fill="#5C5C5C"/>
<path d="M54.6023 317.239L58.4832 312.523L49.6876 305.199L43.9459 312.038L44.4548 312.531C46.769 314.686 56.3837 323.323 58.4036 324.181C60.6701 325.144 54.6023 317.239 54.6023 317.239Z" fill="#9BC5F3"/>
<g opacity="0.5">
<path opacity="0.5" d="M47.2144 314.639C47.7009 313.789 47.8567 312.789 47.6518 311.831C47.4567 310.885 46.9114 310.047 46.1249 309.485L44.0333 311.927L47.2144 314.639Z" fill="white"/>
</g>
<g opacity="0.4">
<path opacity="0.4" d="M57.4573 321.231C57.4573 321.231 59.4454 324.166 58.7615 324.325C58.0776 324.484 48.0096 316.118 43.9459 312.038L44.1208 311.855L55.7395 321.716C55.7395 321.716 56.9244 320.825 57.4573 321.231Z" fill="white"/>
</g>
<path d="M43.9856 311.736L44.1208 311.879L44.5344 312.269L46.0772 313.668C47.3814 314.837 49.2105 316.436 51.2702 318.154C53.3299 319.871 55.2465 321.39 56.6143 322.472L58.2684 323.736L58.7217 324.07L58.8887 324.182L58.7376 324.046L58.3002 323.689L56.7097 322.392C55.3339 321.295 53.4492 319.768 51.3895 318.05C49.3298 316.332 47.4927 314.75 46.1726 313.597L44.5821 312.229L44.1526 311.855L43.9856 311.736Z" fill="#5C5C5C"/>
<path d="M55.6202 321.851C55.91 321.64 56.2253 321.467 56.5586 321.334C56.9025 321.247 57.2541 321.194 57.6084 321.175C57.2541 321.045 56.8651 321.045 56.5109 321.175C56.142 321.285 55.8255 321.526 55.6202 321.851Z" fill="#5C5C5C"/>
<path d="M54.1251 318.368C54.1251 318.408 54.3876 318.368 54.6818 318.265C54.9761 318.162 55.2146 318.066 55.1987 318.026C55.1828 317.987 54.9363 318.026 54.6421 318.13C54.4546 318.171 54.2783 318.253 54.1251 318.368V318.368Z" fill="#5C5C5C"/>
<path d="M53.7275 317.398C53.7275 317.398 53.9422 317.462 54.2126 317.454C54.483 317.446 54.6898 317.406 54.6898 317.366C54.6898 317.327 54.4671 317.303 54.2047 317.311C54.041 317.303 53.8777 317.333 53.7275 317.398V317.398Z" fill="#5C5C5C"/>
<path d="M53.9661 316.229C53.9661 316.229 54.1251 316.452 54.3796 316.667C54.5231 316.812 54.6932 316.928 54.8806 317.008C54.8806 317.008 54.7216 316.778 54.4671 316.563C54.2126 316.348 53.9979 316.166 53.9661 316.229Z" fill="#5C5C5C"/>
<path d="M54.3001 315.482C54.3867 315.7 54.5187 315.897 54.6873 316.06C54.856 316.223 55.0574 316.349 55.2783 316.428C55.1242 316.261 54.9595 316.104 54.7852 315.959C54.5228 315.704 54.3717 315.434 54.3001 315.482Z" fill="#5C5C5C"/>
<path d="M55.0636 317.819C55.2213 318.009 55.4127 318.168 55.6282 318.289C55.8538 318.434 56.0936 318.557 56.3439 318.654C56.4917 318.721 56.6464 318.772 56.8052 318.805C56.9052 318.822 57.0079 318.8 57.0915 318.742C57.1353 318.708 57.1684 318.662 57.1867 318.61C57.2051 318.558 57.2079 318.501 57.1948 318.448C57.0721 318.157 56.8515 317.918 56.5711 317.773C56.2908 317.627 55.9684 317.585 55.66 317.652C55.4784 317.688 55.3071 317.764 55.159 317.875C55.1033 317.911 55.0547 317.957 55.0158 318.01C55.2196 317.886 55.4427 317.798 55.6759 317.748C55.9283 317.704 56.1879 317.735 56.4234 317.835C56.7069 317.945 56.9355 318.162 57.0596 318.44C57.0596 318.583 56.9722 318.662 56.8211 318.638C56.6744 318.606 56.5307 318.56 56.3916 318.503C56.1466 318.412 55.9098 318.301 55.6839 318.169C55.2942 318.018 55.0795 317.819 55.0636 317.819Z" fill="#5C5C5C"/>
<path d="M55.1669 318.003C55.1669 318.003 55.3737 317.939 55.5646 317.669C55.667 317.505 55.7322 317.32 55.7554 317.128C55.7736 317.004 55.7622 316.877 55.7222 316.758C55.6821 316.639 55.6144 316.532 55.5248 316.444C55.4562 316.407 55.3759 316.399 55.3014 316.422C55.2268 316.444 55.1642 316.495 55.1272 316.563C55.0667 316.663 55.0287 316.774 55.0158 316.889C54.9926 317.077 54.9926 317.267 55.0158 317.454C55.0158 317.629 55.0596 317.801 55.1431 317.955C55.1431 317.955 55.1431 317.756 55.1431 317.454C55.1409 317.273 55.1569 317.091 55.1908 316.913C55.1908 316.73 55.3339 316.476 55.5009 316.563C55.6679 316.651 55.6759 316.929 55.6759 317.112C55.6617 317.288 55.6102 317.459 55.5248 317.613C55.4203 317.756 55.3003 317.887 55.1669 318.003V318.003Z" fill="#5C5C5C"/>
<path d="M46.1726 309.485C46.1726 309.485 46.443 309.668 46.8008 310.042C47.2666 310.534 47.5884 311.145 47.7313 311.808C47.863 312.472 47.808 313.16 47.5722 313.796C47.3893 314.289 47.1905 314.551 47.2144 314.591C47.2742 314.538 47.3252 314.477 47.3655 314.408C47.484 314.237 47.5827 314.053 47.6597 313.859C47.9346 313.212 48.0067 312.497 47.8665 311.808C47.7229 311.12 47.3767 310.491 46.8724 310.002C46.7221 309.856 46.5569 309.725 46.3793 309.613C46.3192 309.557 46.249 309.514 46.1726 309.485Z" fill="#5C5C5C"/>
<path d="M50.133 306.583C49.568 307.13 49.0369 307.712 48.5424 308.324C48.0175 308.907 47.5238 309.518 47.0633 310.153C47.6317 309.612 48.1631 309.032 48.6538 308.42C49.1779 307.833 49.6716 307.22 50.133 306.583Z" fill="#5C5C5C"/>
<path d="M49.0037 314.694C49.3436 315.141 49.7391 315.541 50.1807 315.887C50.5936 316.271 51.0563 316.597 51.5565 316.857C51.5565 316.857 50.9759 316.38 50.2761 315.784C49.5763 315.187 49.0355 314.639 49.0037 314.694Z" fill="#5C5C5C"/>
<path d="M47.2859 313.255C47.2859 313.255 47.2303 313.414 47.1826 313.597C47.1348 313.78 47.0633 313.915 47.0951 313.939C47.1269 313.962 47.2541 313.843 47.3178 313.628C47.3814 313.414 47.3257 313.247 47.2859 313.255Z" fill="#5C5C5C"/>
<path d="M47.3098 311.903C47.27 311.903 47.2541 312.046 47.27 312.213C47.2859 312.38 47.3257 312.515 47.3655 312.515C47.4052 312.515 47.4211 312.372 47.3655 312.205C47.3098 312.038 47.3496 311.903 47.3098 311.903Z" fill="#5C5C5C"/>
<path d="M46.6895 310.758C46.6895 310.798 46.7929 310.893 46.8804 311.044C46.9678 311.195 47.0076 311.346 47.0474 311.346C47.0871 311.346 47.111 311.164 46.9997 310.973C46.8883 310.782 46.7054 310.726 46.6895 310.758Z" fill="#5C5C5C"/>
<path d="M46.1726 310.034C46.1726 310.034 46.1726 310.145 46.1726 310.233C46.1726 310.32 46.2919 310.376 46.3237 310.36C46.3555 310.344 46.3237 310.249 46.3237 310.161C46.3237 310.074 46.2044 310.018 46.1726 310.034Z" fill="#5C5C5C"/>
<path d="M78.4043 189.457C78.4043 189.457 74.5951 205.569 75.6766 208.758C76.7582 211.947 83.7325 213.784 83.7325 213.784L83.494 257.913L44.9081 305.628L59.1432 317.271C59.1432 317.271 100.926 269.484 104.608 260.808C108.29 252.132 102.222 188.718 102.222 188.718L78.4043 189.457Z" fill="#5C5C5C"/>
<path d="M98.1108 182.888L99.9955 316.905L80.3766 317.024L70.5233 207.852C68.4398 205.863 65.5053 202.46 65.9109 194.865L66.388 186.046L98.1108 182.888Z" fill="#5C5C5C"/>
<path d="M77.4341 265.373C77.4628 265.302 77.5002 265.235 77.5454 265.174C77.6488 265.031 77.7681 264.848 77.9192 264.625L79.3745 262.565L84.7027 255.185V255.289C84.2733 250.636 83.7564 244.998 83.1997 238.914C82.484 230.962 81.9114 223.725 81.5694 218.484C81.3945 215.868 81.2831 213.752 81.2195 212.289C81.2195 211.589 81.1718 211.025 81.1639 210.595C81.1396 210.4 81.1396 210.202 81.1639 210.007C81.2023 210.201 81.2262 210.398 81.2354 210.595C81.2354 211.017 81.315 211.581 81.3706 212.281C81.4899 213.784 81.649 215.884 81.8557 218.468C82.2693 223.693 82.8896 230.906 83.6053 238.875C84.1381 244.982 84.6789 250.613 85.0368 255.289V255.344V255.392L79.5893 262.677L78.0544 264.689L77.6409 265.206C77.4739 265.333 77.4341 265.381 77.4341 265.373Z" fill="#455A64"/>
<path d="M83.4463 210.007C81.6907 209.913 79.9486 209.647 78.2453 209.211C76.5126 208.918 74.8131 208.455 73.1715 207.828C74.9099 208.05 76.6334 208.377 78.3328 208.806C80.0588 209.108 81.766 209.509 83.4463 210.007Z" fill="#455A64"/>
<path d="M96.8861 255.789C95.1926 255.087 93.4104 254.621 91.5897 254.406C89.7553 254.332 87.9196 254.511 86.1342 254.938C86.6005 254.644 87.1188 254.442 87.6611 254.342C88.9576 254.004 90.3017 253.885 91.6374 253.992C92.9646 254.099 94.2651 254.424 95.4864 254.954C95.9992 255.147 96.4733 255.429 96.8861 255.789V255.789Z" fill="#455A64"/>
<path d="M103.813 261.977C103.9 262.048 98.3812 269.46 91.4783 278.526C84.5755 287.592 78.9053 294.9 78.8179 294.837C78.7304 294.773 84.2495 287.353 91.1523 278.279C98.0551 269.205 103.725 261.905 103.813 261.977Z" fill="#455A64"/>
<path d="M101.157 192.837C100.93 193.418 100.548 193.924 100.051 194.3C99.4829 194.798 98.8178 195.173 98.0977 195.402C97.3776 195.63 96.6181 195.707 95.8668 195.628C95.1155 195.549 94.3887 195.315 93.732 194.942C93.0753 194.568 92.503 194.063 92.0509 193.457C91.63 192.992 91.3537 192.415 91.2557 191.795C91.5618 192.304 91.8963 192.795 92.2577 193.267C93.1666 194.368 94.4719 195.069 95.8924 195.218C97.3129 195.366 98.7349 194.951 99.8524 194.062C100.308 193.677 100.744 193.268 101.157 192.837V192.837Z" fill="#455A64"/>
<path d="M74.3326 123.88C71.0998 120.809 69.1936 116.597 69.0198 112.141C68.846 107.685 70.4184 103.337 73.4022 100.023" fill="#5C5C5C"/>
<path d="M63.3024 136.382C63.3024 136.382 59.0398 141.201 58.1571 159.627C58.1571 159.627 70.3007 161.933 70.5233 161.273C70.746 160.613 63.3024 136.382 63.3024 136.382Z" fill="#9BC5F3"/>
<g opacity="0.3">
<path opacity="0.3" d="M63.3024 136.382C63.3024 136.382 59.0398 141.201 58.1571 159.627C58.1571 159.627 70.3007 161.933 70.5233 161.273C70.746 160.613 63.3024 136.382 63.3024 136.382Z" fill="black"/>
</g>
<path d="M65.2746 190.054H102.564L101.96 184.224C101.96 184.224 97.6972 162.069 97.7291 161.774L98.3971 160.367C99.2684 158.539 99.7344 156.545 99.7632 154.52C99.792 152.495 99.383 150.488 98.5641 148.637L116.855 142.394L112.386 127.332C104.099 128.723 91.5738 130.29 91.5738 130.29L89.7129 130.441C89.7129 130.441 76.782 131.117 76.5037 131.149C71.0959 131.809 64.8054 132.223 62.5072 138.012C61.2745 141.106 62.4435 145.75 64.4555 150.537L69.2271 165.25C71.1357 173.337 68.0899 172.948 66.4119 181.091C66.1415 182.316 65.2508 188.924 65.2746 190.054Z" fill="#9BC5F3"/>
<g opacity="0.3">
<path opacity="0.3" d="M65.2746 190.054H102.564L101.96 184.224C101.96 184.224 97.6972 162.069 97.7291 161.774L98.3971 160.367C99.2684 158.539 99.7344 156.545 99.7632 154.52C99.792 152.495 99.383 150.488 98.5641 148.637L116.855 142.394L112.386 127.332C104.099 128.723 91.5738 130.29 91.5738 130.29L89.7129 130.441C89.7129 130.441 76.782 131.117 76.5037 131.149C71.0959 131.809 64.8054 132.223 62.5072 138.012C61.2745 141.106 62.4435 145.75 64.4555 150.537L69.2271 165.25C71.1357 173.337 68.0899 172.948 66.4119 181.091C66.1415 182.316 65.2508 188.924 65.2746 190.054Z" fill="black"/>
</g>
<path d="M116.648 142.641C116.396 142.783 116.129 142.897 115.853 142.983C115.328 143.173 114.557 143.436 113.602 143.778C111.694 144.422 109.038 145.273 106.111 146.211C103.185 147.15 100.544 148.08 98.7152 148.844C97.7768 149.225 97.0372 149.559 96.5203 149.782C96.2695 149.921 96.0024 150.028 95.725 150.1C95.956 149.916 96.2067 149.759 96.4726 149.631C96.9736 149.368 97.6972 148.987 98.6197 148.573C101.031 147.523 103.497 146.604 106.008 145.822C108.942 144.883 111.574 144.072 113.539 143.5C114.501 143.213 115.288 142.991 115.829 142.839C116.093 142.739 116.368 142.673 116.648 142.641V142.641Z" fill="#5C5C5C"/>
<path d="M114.485 134.616C114.485 134.728 103.455 134.823 89.8322 134.823C76.2094 134.823 65.1792 134.728 65.1792 134.616C65.1792 134.505 76.2015 134.41 89.8322 134.41C103.463 134.41 114.485 134.505 114.485 134.616Z" fill="#FAFAFA"/>
<path d="M115.606 141.941C115.606 142.052 103.336 142.147 88.2019 142.147C73.0681 142.147 60.8053 142.052 60.8053 141.941C60.8053 141.829 73.0681 141.734 88.2019 141.734C103.336 141.734 115.606 141.829 115.606 141.941Z" fill="#FAFAFA"/>
<path d="M63.9148 150.275C63.1693 150.477 62.3941 150.547 61.6244 150.482C60.8574 150.547 60.0849 150.477 59.342 150.275C60.0849 150.073 60.8574 150.003 61.6244 150.068C62.3941 150.003 63.1693 150.073 63.9148 150.275V150.275Z" fill="#FAFAFA"/>
<path d="M99.7013 150.53C99.7013 150.641 91.6772 150.736 81.7842 150.736C71.8912 150.736 63.867 150.641 63.867 150.53C63.867 150.418 71.8832 150.323 81.7842 150.323C91.6851 150.323 99.7013 150.41 99.7013 150.53Z" fill="#FAFAFA"/>
<path d="M98.906 159.11C98.906 159.23 91.701 159.317 82.826 159.317C73.9509 159.317 66.7379 159.23 66.7379 159.11C66.7379 158.991 73.935 158.904 82.826 158.904C91.7169 158.904 98.906 158.999 98.906 159.11Z" fill="#FAFAFA"/>
<path d="M98.6834 167.071C98.6834 167.182 92.1623 167.278 84.1143 167.278C76.0663 167.278 69.5293 167.182 69.5293 167.071C69.5293 166.959 76.0583 166.864 84.1143 166.864C92.1702 166.864 98.6834 166.951 98.6834 167.071Z" fill="#FAFAFA"/>
<path d="M99.9637 173.504C99.9637 173.624 92.9814 173.711 84.3687 173.711C75.7561 173.711 68.7738 173.624 68.7738 173.504C68.7738 173.385 75.7561 173.298 84.3687 173.298C92.9814 173.298 99.9637 173.393 99.9637 173.504Z" fill="#FAFAFA"/>
<path d="M101.984 181.712C101.984 181.831 94.0311 181.918 84.2415 181.918C74.4519 181.918 66.4993 181.831 66.4993 181.712C66.4993 181.592 74.4519 181.505 84.2415 181.505C94.0311 181.505 101.984 181.6 101.984 181.712Z" fill="#FAFAFA"/>
<path d="M68.9805 164.558C68.8304 164.334 68.7176 164.087 68.6465 163.826L67.8513 161.79C67.1912 160.073 66.2608 157.703 65.3065 155.055C64.3521 152.406 63.5489 149.989 63.0479 148.215C62.8014 147.325 62.6105 146.625 62.5072 146.1C62.4307 145.841 62.3853 145.574 62.372 145.305C62.7399 146.228 63.0585 147.171 63.3263 148.128C63.8989 149.877 64.7339 152.279 65.712 154.919C66.6902 157.56 67.5491 159.945 68.0978 161.695C68.3921 162.57 68.6147 163.285 68.7579 163.778C68.865 164.028 68.9399 164.29 68.9805 164.558V164.558Z" fill="#5C5C5C"/>
</svg>
